<svg xmlns="http://www.w3.org/2000/svg" xmlns:xlink="http://www.w3.org/1999/xlink" xmlns:xodm="http://www.corel.com/coreldraw/odm/2003" xml:space="preserve" version="1.1" style="shape-rendering:geometricPrecision;text-rendering:geometricPrecision;image-rendering:optimizeQuality;" viewBox="0 0 8.4666 10.58325" x="0px" y="0px" fill-rule="evenodd" clip-rule="evenodd"><defs><style type="text/css">
   
    .fil0 {fill:black;fill-rule:nonzero}
   
  </style></defs><g><path class="fil0" d="M4.3183 2.7219c0.2405,-0.2213 0.5837,-0.3596 0.9226,-0.4289 0.0337,-0.0068 0.0696,0.0075 0.0887,0.0384 0.0244,0.0396 0.0121,0.0917 -0.0275,0.1161 -0.2617,0.1613 -0.461,0.3581 -0.5894,0.5542 -0.1332,0.2034 -0.1889,0.4027 -0.1572,0.5554 0.0305,0.1471 0.0884,0.2776 0.1424,0.3992 0.1738,0.3916 0.3129,0.7054 -0.3638,1.2085 -0.0247,0.02 -0.0519,0.0397 -0.0816,0.059 -0.0391,0.0254 -0.0914,0.0143 -0.1168,-0.0248 -0.0254,-0.0391 -0.0143,-0.0914 0.0248,-0.1168l0.0491 -0.0351c0.2873,-0.2262 0.1461,-0.5363 -0.0055,-0.8691 -0.1037,-0.2278 -0.212,-0.4656 -0.2156,-0.7104 -0.0047,-0.312 0.1259,-0.558 0.3298,-0.7457zm-0.375 1.7389c-0.1783,-0.0561 -0.3408,-0.1267 -0.4856,-0.2113 -0.2564,-0.1509 -0.4485,-0.3414 -0.5571,-0.5632 -0.1113,-0.2274 -0.1345,-0.4852 -0.0473,-0.7623 0.0311,-0.0989 0.076,-0.1999 0.1357,-0.3021 0.1684,-0.2886 0.4507,-0.5085 0.7221,-0.7199 0.4509,-0.3512 0.8697,-0.6775 0.5714,-1.2493 -0.0215,-0.0412 -0.0055,-0.0922 0.0357,-0.1137 0.0376,-0.0196 0.0833,-0.008 0.1074,0.0254 0.7702,1.0684 0.2935,1.463 -0.2529,1.915 -0.1514,0.1253 -0.309,0.2557 -0.4399,0.4055 -0.1566,0.1792 -0.2316,0.4206 -0.1806,0.685 0.0458,0.2378 0.1932,0.4958 0.4727,0.7474 0.0346,0.0312 0.0375,0.0847 0.0063,0.1193 -0.0228,0.0252 -0.0574,0.0336 -0.0879,0.0242zm-1.1553 2.5514c-0.1365,0.0274 -0.2569,0.0607 -0.3579,0.0993 -0.1965,0.075 -0.3111,0.1637 -0.3111,0.2576 0,0.1383 0.2229,0.2737 0.5831,0.3806 0.3902,0.1158 0.9315,0.1875 1.5312,0.1875 0.5995,0 1.1409,-0.0717 1.531,-0.1875 0.3602,-0.1069 0.5831,-0.2423 0.5831,-0.3806 0,-0.0939 -0.1146,-0.1826 -0.3111,-0.2576 -0.1009,-0.0386 -0.2214,-0.0719 -0.3579,-0.0993 0.1123,0.0622 0.1751,0.1362 0.1751,0.2269 0,0.1523 -0.1965,0.2789 -0.5137,0.3604 -0.285,0.0731 -0.6765,0.1184 -1.1065,0.1184 -0.43,0 -0.8216,-0.0453 -1.1066,-0.1184 -0.3173,-0.0815 -0.5138,-0.2081 -0.5138,-0.3604 0,-0.0907 0.0628,-0.1647 0.1751,-0.2269zm-0.3543 -1.063c-0.1772,0.0272 -0.3341,0.0607 -0.4663,0.0995 -0.2657,0.0781 -0.4212,0.169 -0.4212,0.2633 0,0.1364 0.2854,0.2722 0.7464,0.3812 0.4952,0.117 1.1814,0.1896 1.9407,0.1896 0.7593,0 1.4455,-0.0726 1.9407,-0.1896 0.461,-0.109 0.7464,-0.2448 0.7464,-0.3812 0,-0.0943 -0.1555,-0.1852 -0.4212,-0.2633 -0.1322,-0.0388 -0.2891,-0.0723 -0.4663,-0.0995 0.1415,0.0624 0.2208,0.138 0.2208,0.2322 0,0.1551 -0.2426,0.2825 -0.6347,0.3626 -0.3563,0.0729 -0.8465,0.118 -1.3857,0.118 -0.5392,0 -1.0294,-0.0451 -1.3857,-0.118 -0.3921,-0.0801 -0.6347,-0.2075 -0.6347,-0.3626 0,-0.0942 0.0793,-0.1698 0.2208,-0.2322zm3.8545 -1.3218c0.2828,0.0875 0.4474,0.1955 0.4474,0.338 0,0.1823 -0.2966,0.3343 -0.776,0.4323 -0.4434,0.0907 -1.054,0.1468 -1.7263,0.1468 -0.6723,0 -1.2829,-0.0561 -1.7263,-0.1468 -0.4794,-0.098 -0.776,-0.25 -0.776,-0.4323 0,-0.1425 0.1646,-0.2505 0.4474,-0.338 -0.2435,0.0306 -0.462,0.0698 -0.6492,0.1165 -0.4216,0.1052 -0.6731,0.2385 -0.6731,0.3846 0,0.1815 0.3625,0.358 0.9485,0.4966 0.6201,0.1467 1.4788,0.2374 2.4287,0.2374 0.9499,0 1.8086,-0.0907 2.4287,-0.2374 0.586,-0.1386 0.9485,-0.3151 0.9485,-0.4966 0,-0.1461 -0.2515,-0.2794 -0.6731,-0.3846 -0.1872,-0.0467 -0.4057,-0.0859 -0.6492,-0.1165z"/></g><text x="0" y="23.4666" fill="#000000" font-size="5px" font-weight="bold" font-family="'Helvetica Neue', Helvetica, Arial-Unicode, Arial, Sans-serif">Created by Soetarman Atmodjo</text><text x="0" y="28.4666" fill="#000000" font-size="5px" font-weight="bold" font-family="'Helvetica Neue', Helvetica, Arial-Unicode, Arial, Sans-serif">from the Noun Project</text></svg>