<svg xmlns="http://www.w3.org/2000/svg" version="1.1" viewBox="-5.0 -10.0 110.0 135.0">
 <g>
  <path d="m23.055 30.117 1.4492-0.14453c0.085938 0.48828 0.26172 0.84375 0.53125 1.0742 0.26562 0.22656 0.625 0.34375 1.0781 0.34375 0.48047 0 0.84375-0.10156 1.0859-0.30469 0.24219-0.20313 0.36719-0.44141 0.36719-0.71094 0-0.17578-0.050781-0.32422-0.15625-0.44531-0.10156-0.125-0.28125-0.23047-0.53516-0.32031-0.17188-0.0625-0.57031-0.16797-1.1914-0.32422-0.80078-0.19922-1.3594-0.44141-1.6797-0.73047-0.45312-0.40625-0.67969-0.90234-0.67969-1.4844 0-0.375 0.10547-0.72656 0.32031-1.0547 0.21484-0.32812 0.51953-0.57422 0.92188-0.74609s0.88672-0.25781 1.4531-0.25781c0.92969 0 1.625 0.20312 2.0938 0.60938s0.71484 0.94922 0.73828 1.6289l-1.4883 0.066406c-0.0625-0.37891-0.19922-0.65234-0.41016-0.81641-0.21094-0.16797-0.52344-0.25-0.94531-0.25-0.43359 0-0.77344 0.085938-1.0156 0.26562-0.15625 0.11328-0.23828 0.26562-0.23828 0.45703 0 0.17578 0.074219 0.32422 0.22266 0.44922 0.1875 0.15625 0.64453 0.32422 1.3711 0.49219 0.72656 0.17188 1.2617 0.34766 1.6094 0.53125 0.34766 0.18359 0.61719 0.43359 0.81641 0.75 0.19531 0.31641 0.29297 0.71094 0.29297 1.1758 0 0.42188-0.11719 0.82031-0.35156 1.1875-0.23438 0.37109-0.56641 0.64453-0.99609 0.82422-0.42969 0.17969-0.96484 0.26953-1.6055 0.26953-0.93359 0-1.6484-0.21484-2.1484-0.64453-0.5-0.42969-0.80078-1.0586-0.89453-1.8867zm13.195 1.4648c0.36328 0.26172 0.76172 0.47266 1.1914 0.625l-0.54688 1.0547c-0.22656-0.066407-0.44531-0.16016-0.66016-0.27734-0.046875-0.023437-0.37891-0.24219-0.99219-0.65625-0.48438 0.21094-1.0195 0.31641-1.6055 0.31641-1.1328 0-2.0234-0.33203-2.6641-1-0.64453-0.66797-0.96484-1.6055-0.96484-2.8125s0.32031-2.1445 0.96484-2.8125c0.64453-0.66797 1.5195-1.0039 2.625-1.0039 1.0938 0 1.9609 0.33594 2.6016 1.0039 0.64062 0.67188 0.96094 1.6055 0.96094 2.8125 0 0.63672-0.089844 1.1992-0.26562 1.6797-0.13672 0.37109-0.35156 0.72656-0.64453 1.0703zm-1.1992-0.83984c0.19141-0.22656 0.33594-0.49609 0.42969-0.81641 0.09375-0.31641 0.14453-0.68359 0.14453-1.0977 0-0.85547-0.1875-1.4883-0.5625-1.9102s-0.86719-0.63281-1.4727-0.63281c-0.60938 0-1.1016 0.21094-1.4766 0.63281-0.37891 0.42188-0.56641 1.0586-0.56641 1.9102 0 0.85938 0.1875 1.5078 0.56641 1.9336 0.37891 0.42969 0.85547 0.64453 1.4297 0.64453 0.21484 0 0.41797-0.035156 0.60938-0.10547-0.30078-0.19922-0.60938-0.35156-0.92188-0.46484l0.41797-0.85156c0.48828 0.16797 0.95703 0.41797 1.4023 0.75781zm3.3164 1.7773v-7.3203h1.4883v6.0742h3.7031v1.2422h-5.1953z"/>
  <path d="m45.484 55.516 1.3516-0.11719c0.0625 0.54297 0.21094 0.98437 0.44531 1.3359 0.23438 0.34766 0.59766 0.62891 1.0898 0.84375 0.49219 0.21484 1.0469 0.32031 1.6602 0.32031 0.54688 0 1.0273-0.082032 1.4492-0.24219 0.41797-0.16406 0.73047-0.38672 0.9375-0.66797 0.20312-0.28516 0.30859-0.59375 0.30859-0.92969 0-0.33984-0.097656-0.63672-0.29687-0.89062-0.19531-0.25391-0.52344-0.46484-0.97266-0.63672-0.29297-0.11328-0.93359-0.28906-1.9297-0.53125-0.99219-0.23828-1.6914-0.46484-2.0898-0.67578-0.51562-0.26953-0.90234-0.60938-1.1562-1.0078-0.25391-0.40234-0.37891-0.85156-0.37891-1.3477 0-0.54297 0.15234-1.0586 0.46484-1.5312 0.30859-0.47656 0.76562-0.83594 1.3594-1.0859 0.59766-0.24609 1.2578-0.36719 1.9883-0.36719 0.80469 0 1.5117 0.12891 2.125 0.38672 0.61328 0.25781 1.0859 0.63672 1.4141 1.1406 0.32812 0.5 0.50781 1.0703 0.53125 1.707l-1.375 0.10156c-0.074218-0.68359-0.32422-1.2031-0.75-1.5508-0.42578-0.35156-1.0547-0.52344-1.8867-0.52344-0.86719 0-1.4961 0.16016-1.8945 0.47656-0.39453 0.31641-0.59375 0.69922-0.59375 1.1484 0 0.39062 0.14062 0.71094 0.42188 0.96094 0.27734 0.25391 0.99609 0.50781 2.1602 0.77344 1.1641 0.26562 1.9648 0.49609 2.3984 0.69141 0.62891 0.29297 1.0977 0.66016 1.3984 1.1055 0.30078 0.44531 0.44922 0.96094 0.44922 1.5391s-0.16406 1.1211-0.49609 1.6289c-0.33203 0.50781-0.80469 0.90625-1.4219 1.1914-0.61719 0.28125-1.3125 0.42188-2.0859 0.42188-0.98047 0-1.8047-0.14062-2.4648-0.42969-0.66406-0.28516-1.1836-0.71484-1.5625-1.2891-0.375-0.57422-0.57422-1.2227-0.59375-1.9453zm18.789 2.3203c0.66406 0.46094 1.2773 0.79297 1.8398 1.0039l-0.42188 1c-0.77734-0.28125-1.5547-0.72266-2.3281-1.3281-0.80078 0.44531-1.6875 0.67188-2.6562 0.67188-0.98047 0-1.8672-0.23828-2.668-0.70703-0.79687-0.47266-1.4141-1.1367-1.8438-1.9961-0.42969-0.85547-0.64453-1.8242-0.64453-2.8945 0-1.0703 0.21875-2.043 0.65234-2.9219 0.43359-0.875 1.0508-1.543 1.8516-2.0039 0.80078-0.45703 1.6953-0.6875 2.6836-0.6875 1 0 1.9023 0.23828 2.707 0.71484 0.80078 0.47266 1.4141 1.1406 1.8359 1.9961 0.42188 0.85547 0.62891 1.8164 0.62891 2.8906 0 0.89062-0.13281 1.6914-0.40625 2.4023-0.26953 0.71094-0.67969 1.332-1.2266 1.8594zm-3.1562-1.832c0.82812 0.23047 1.5078 0.57812 2.0469 1.0352 0.84375-0.76953 1.2617-1.9258 1.2617-3.4648 0-0.87891-0.14844-1.6445-0.44531-2.3008-0.29688-0.65234-0.73438-1.1641-1.3047-1.5273-0.57422-0.35938-1.2188-0.54297-1.9336-0.54297-1.0664 0-1.9531 0.36719-2.6562 1.0977-0.70703 0.73047-1.0586 1.8242-1.0586 3.2773 0 1.4062 0.34766 2.4883 1.043 3.2422 0.69922 0.75 1.5898 1.1289 2.6719 1.1289 0.51562 0 0.99609-0.097657 1.4492-0.28906-0.44922-0.29297-0.92188-0.5-1.418-0.62109l0.34766-1.043zm6.6562 2.9922v-10.832h1.4336v9.5547h5.332v1.2773h-6.7695z"/>
  <path d="m41.902 68.758c-0.42969 0-0.78125 0.35156-0.78125 0.78125 0 0.42969 0.35156 0.78125 0.78125 0.78125h36.223c0.42969 0 0.78125-0.35156 0.78125-0.78125 0-0.42969-0.35156-0.78125-0.78125-0.78125z"/>
  <path d="m41.902 74.254c-0.42969 0-0.78125 0.35156-0.78125 0.78125 0 0.42969 0.35156 0.78125 0.78125 0.78125h36.223c0.42969 0 0.78125-0.35156 0.78125-0.78125 0-0.42969-0.35156-0.78125-0.78125-0.78125z"/>
  <path d="m41.902 79.75c-0.42969 0-0.78125 0.35156-0.78125 0.78125s0.35156 0.78125 0.78125 0.78125h36.223c0.42969 0 0.78125-0.35156 0.78125-0.78125s-0.35156-0.78125-0.78125-0.78125z"/>
  <path d="m33.309 12.5h43.848c0.26562 0 0.50391 0.13281 0.64453 0.33984l9.5117 11.176c0.13281 0.15625 0.17578 0.30859 0.1875 0.51172v62.195c0 0.42969-0.35156 0.78125-0.78125 0.78125h-53.41c-0.42969 0-0.78125-0.35156-0.78125-0.78125v-50.793h1.5625v50.012h51.848v-61.137l-9.1367-10.738h-42.711v8.3984h-1.5625v-9.1797c0-0.42969 0.35156-0.78125 0.78125-0.78125z"/>
  <path d="m86.523 25.301c0.42969 0 0.78125-0.35156 0.78125-0.78125 0-0.42969-0.35156-0.78125-0.78125-0.78125h-8.5859v-10.262c0-0.42969-0.35156-0.78125-0.78125-0.78125s-0.78125 0.35156-0.78125 0.78125v11.043c0 0.42969 0.35156 0.78125 0.78125 0.78125z"/>
  <path d="m19.957 21.68h31.816c1.293 0 2.3477 1.0547 2.3477 2.3477v10.223c0 1.293-1.0547 2.3477-2.3477 2.3477h-31.816c-2.0508 0-3.918-0.83984-5.2656-2.1914-2.918-2.918-2.918-7.6133 0-10.535 1.3516-1.3516 3.2148-2.1914 5.2656-2.1914zm31.816 1.5625h-31.816c-1.6211 0-3.0938 0.66406-4.1641 1.7305-2.3086 2.3086-2.3086 6.0156 0 8.3242 1.0703 1.0703 2.543 1.7305 4.1641 1.7305h31.816c0.42969 0 0.78516-0.35547 0.78516-0.78516v-10.223c0-0.42969-0.35547-0.78516-0.78516-0.78516z"/>
 </g>
<text x="0.0" y="117.5" font-size="5.0" font-weight="bold" font-family="Arbeit Regular, Helvetica, Arial-Unicode, Arial, Sans-serif" fill="#000000">Created by Jamil Akhtar</text><text x="0.0" y="122.5" font-size="5.0" font-weight="bold" font-family="Arbeit Regular, Helvetica, Arial-Unicode, Arial, Sans-serif" fill="#000000">from Noun Project</text></svg>